<svg width="240" height="244" viewBox="0 0 240 244" fill="none" xmlns="http://www.w3.org/2000/svg">
<line y1="122" x2="240" y2="122" stroke="#6C6464" stroke-width="5"/>
<line x1="121.476" y1="242.947" x2="121.476" y2="2.94739" stroke="#6C6464" stroke-width="5"/>
<path d="M194.01 120C194.01 159.223 162.392 190.947 123.476 190.947C84.5611 190.947 52.9424 159.223 52.9424 120C52.9424 80.7772 84.5611 49.0526 123.476 49.0526C162.392 49.0526 194.01 80.7772 194.01 120Z" fill="white" stroke="#6C6464" stroke-width="4"/>
<path d="M157.361 119.474C157.361 138.64 141.917 154.105 122.953 154.105C103.989 154.105 88.5445 138.64 88.5445 119.474C88.5445 100.308 103.989 84.8421 122.953 84.8421C141.917 84.8421 157.361 100.308 157.361 119.474Z" fill="#6C6464" stroke="#6C6464" stroke-width="4"/>
</svg>
